<mxfile host="app.diagrams.net" modified="2022-09-15T10:23:03.681Z" agent="5.0 (Windows NT 10.0; Win64; x64) AppleWebKit/537.36 (KHTML, like Gecko) Chrome/105.0.0.0 Safari/537.36" etag="_a3t_RZsE5E70HaKwQ-p" version="20.3.0" type="github">
  <diagram id="0G0_bFfPiu2x_rY5T0mG" name="第 1 页">
    <mxGraphModel dx="1294" dy="803" grid="1" gridSize="10" guides="1" tooltips="1" connect="1" arrows="1" fold="1" page="1" pageScale="1" pageWidth="827" pageHeight="1169" math="0" shadow="0">
      <root>
        <mxCell id="0" />
        <mxCell id="1" parent="0" />
        <mxCell id="MFvBpX36CJ3SuSz1MzbC-2" value="hybris-fusion-cluster" style="aspect=fixed;html=1;points=[];align=center;image;fontSize=12;image=img/lib/azure2/general/Search_Grid.svg;" vertex="1" parent="1">
          <mxGeometry x="470" y="260" width="68" height="67" as="geometry" />
        </mxCell>
        <mxCell id="MFvBpX36CJ3SuSz1MzbC-3" value="flash-fusion-cluster" style="aspect=fixed;html=1;points=[];align=center;image;fontSize=12;image=img/lib/azure2/general/Search_Grid.svg;" vertex="1" parent="1">
          <mxGeometry x="480" y="450" width="68" height="67" as="geometry" />
        </mxCell>
        <mxCell id="MFvBpX36CJ3SuSz1MzbC-4" value="hybris" style="aspect=fixed;html=1;points=[];align=center;image;fontSize=12;image=img/lib/azure2/compute/App_Services.svg;" vertex="1" parent="1">
          <mxGeometry x="230" y="260" width="64" height="64" as="geometry" />
        </mxCell>
        <mxCell id="MFvBpX36CJ3SuSz1MzbC-5" value="flash" style="aspect=fixed;html=1;points=[];align=center;image;fontSize=12;image=img/lib/azure2/compute/App_Services.svg;" vertex="1" parent="1">
          <mxGeometry x="240" y="450" width="64" height="64" as="geometry" />
        </mxCell>
        <mxCell id="MFvBpX36CJ3SuSz1MzbC-6" value="" style="endArrow=classic;html=1;rounded=0;" edge="1" parent="1" source="MFvBpX36CJ3SuSz1MzbC-4" target="MFvBpX36CJ3SuSz1MzbC-2">
          <mxGeometry width="50" height="50" relative="1" as="geometry">
            <mxPoint x="390" y="450" as="sourcePoint" />
            <mxPoint x="440" y="400" as="targetPoint" />
          </mxGeometry>
        </mxCell>
        <mxCell id="MFvBpX36CJ3SuSz1MzbC-7" value="" style="endArrow=classic;html=1;rounded=0;" edge="1" parent="1">
          <mxGeometry width="50" height="50" relative="1" as="geometry">
            <mxPoint x="300" y="481.45834710743793" as="sourcePoint" />
            <mxPoint x="476" y="482.54925619834717" as="targetPoint" />
          </mxGeometry>
        </mxCell>
      </root>
    </mxGraphModel>
  </diagram>
</mxfile>
